<?xml version="1.0" standalone="no"?>
<!DOCTYPE svg PUBLIC "-//W3C//DTD SVG 20010904//EN"
 "http://www.w3.org/TR/2001/REC-SVG-20010904/DTD/svg10.dtd">
<svg version="1.0" xmlns="http://www.w3.org/2000/svg"
 width="700.000000pt" height="700.000000pt" viewBox="0 0 700.000000 700.000000"
 preserveAspectRatio="xMidYMid meet">
<metadata>
Created by potrace 1.11, written by Peter Selinger 2001-2013
</metadata>
<g transform="translate(0.000000,700.000000) scale(0.100000,-0.100000)"
fill="#000000" stroke="none">
<path d="M3320 6950 c-80 -27 -280 -84 -445 -125 -447 -113 -711 -194 -880
-270 -27 -13 -72 -32 -100 -44 -27 -12 -59 -27 -70 -33 -11 -7 -59 -33 -108
-60 -74 -41 -332 -204 -362 -230 -5 -5 -69 -50 -140 -101 -72 -51 -154 -110
-183 -132 -28 -21 -62 -40 -74 -41 -13 0 -57 -4 -98 -8 -41 -3 -97 -8 -125
-11 -27 -2 -81 -7 -120 -11 -74 -6 -103 -9 -227 -19 -42 -3 -92 -8 -110 -10
-18 -2 -69 -7 -113 -10 -44 -4 -93 -8 -110 -10 -16 -1 -36 -3 -42 -4 -10 -1
-13 -158 -13 -751 0 -418 4 -750 9 -750 4 0 152 54 327 121 294 111 423 159
430 159 4 0 -19 -78 -83 -280 -31 -96 -64 -202 -73 -235 -10 -33 -41 -100 -69
-149 -99 -171 -221 -452 -266 -616 -3 -8 -15 -53 -29 -100 -84 -292 -130 -624
-131 -945 0 -143 1 -153 27 -208 15 -32 33 -63 40 -71 7 -7 24 -27 37 -45 66
-87 266 -218 471 -309 110 -49 328 -127 455 -162 130 -36 282 -73 430 -105 75
-17 397 -72 465 -80 19 -2 51 -7 71 -10 l36 -6 2 -127 c3 -172 8 -228 31 -314
l19 -72 -28 -26 c-43 -39 -63 -85 -62 -149 0 -104 53 -229 137 -323 124 -140
369 -240 649 -266 98 -9 1772 -10 1800 0 11 3 56 13 100 22 177 37 462 122
777 233 98 34 98 34 160 19 61 -14 141 -32 183 -41 25 -5 215 -45 235 -50 38
-8 357 -77 375 -81 11 -2 83 -18 160 -35 77 -17 149 -33 160 -35 11 -2 43 -8
70 -14 28 -6 58 -13 68 -15 16 -3 17 38 17 755 l0 758 -32 -3 c-18 -2 -87 -6
-153 -10 -66 -3 -140 -8 -165 -10 -25 -2 -99 -6 -165 -10 -66 -4 -140 -8 -165
-10 -25 -2 -103 -7 -175 -10 -71 -4 -151 -8 -176 -10 -30 -2 -54 1 -65 10 -15
11 -16 14 -4 15 19 0 351 110 365 120 6 4 21 11 33 15 13 4 70 29 127 55 218
103 379 224 457 344 45 70 60 120 61 201 0 70 -12 276 -17 284 -2 3 -7 39 -10
80 -4 41 -9 78 -11 81 -4 6 -14 54 -20 95 -1 11 -12 61 -24 110 -13 50 -24 99
-27 109 -7 38 -77 243 -116 341 -40 103 -137 304 -207 433 l-40 73 1 117 c1
139 8 202 53 457 35 198 35 197 42 230 9 40 8 34 18 90 4 28 9 55 11 60 8 36
39 204 48 270 4 23 9 52 12 65 3 14 6 81 8 150 4 182 -27 282 -103 334 -38 26
-102 45 -136 40 -11 -2 -40 -6 -65 -9 -42 -6 -422 -153 -560 -217 -91 -42
-206 -109 -330 -190 -110 -72 -164 -93 -267 -103 -62 -6 -64 -6 -195 58 -73
36 -160 76 -193 90 -104 43 -223 87 -237 87 -7 0 1 8 19 18 54 30 93 70 119
123 50 99 21 233 -72 334 l-33 37 26 39 26 39 -26 68 c-14 37 -42 117 -62 177
-44 133 -57 163 -107 239 -22 33 -35 62 -30 65 24 16 41 70 38 127 -4 105 -91
232 -212 310 -101 65 -93 64 -463 64 l-336 -1 -145 -49z m493 -1319 c34 -17
87 -54 117 -81 l55 -51 -70 6 c-38 3 -90 8 -115 11 -111 11 -468 5 -625 -11
l-50 -6 60 36 c145 85 335 137 478 131 73 -3 97 -8 150 -35z"/>
</g>
</svg>
