<svg xmlns="http://www.w3.org/2000/svg" width="128" height="128" viewBox="0 0 128 128">
  <defs>
    <filter id="blob_cat_gratpat-a" width="135.3%" height="220%" x="-17.6%" y="-60%" filterUnits="objectBoundingBox">
      <feGaussianBlur in="SourceGraphic" stdDeviation="5"/>
    </filter>
    <linearGradient id="blob_cat_gratpat-b" x1="0%" x2="0%" y1="0%" y2="100%">
      <stop offset="0%" stop-color="#FFA038"/>
      <stop offset="100%" stop-color="#F17F3A"/>
    </linearGradient>
  </defs>
  <g fill="none" fill-rule="evenodd" transform="translate(-60)">
    <path fill="#FCCA1E" d="M94.2897,19.9756 C94.2897,19.9756 100.5486,28.7488 103.8437,29.9677 C110.6317,27.9927 117.9328,27 125.4999,27 C135.8556,27 145.533,29.759 154.007,34.441 C155.6969,34.3087 157.6283,34.032 158.4357,33.4541 C163.723,29.669 167.113,28.3829 170.093,27.252 C171.174,26.8419 172.201,26.4521 173.246,25.971 C180.736,22.5207 182.765,26.9904 181.672,34.5623 C181.326,36.9626 180.797,39.632 180.261,42.3422 C179.1,48.2042 177.901,54.257 178.426,58.1894 C183.822,67.242 186.924,77.4432 186.999,87.6242 C186.773,97.7843 158.8778,106 124.4999,106 C90.0977,106 62.18732,97.7727 62.00085,87.6026 C62.06368,74.3318 65.27394,63.2056 70.7892,54.2586 C78.3272,30.7769 79.9228,22.3364 79.9228,22.3364 C80.935,16.4953 89.2713,11.1742 94.2897,19.9756 Z"/>
    <path fill="#F17F3A" d="M92.9999,63.5 C92.9999,68.7467 88.5227,73 82.9999,73 C77.477,73 72.9999,68.7467 72.9999,63.5 C72.9999,58.2533 77.477,54 82.9999,54 C88.5227,54 92.9999,58.2533 92.9999,63.5 Z M157.9999,68 C157.9999,74.0752 153.075,79 146.9999,79 C140.9247,79 135.9999,74.0752 135.9999,68 C135.9999,61.9249 140.9247,57 146.9999,57 C153.075,57 157.9999,61.9249 157.9999,68 Z" filter="url(#blob_cat_gratpat-a)"/>
    <path fill="#88C9F9" d="M120.1999,64 L114.7999,64 C113.8099,64 112.9999,64.765 112.9999,65.7 L112.9999,80.5 C112.9999,81.435 113.8099,82.2 114.7999,82.2 C115.7899,82.2 116.5999,81.435 116.5999,80.5 L116.5999,86.45 C116.5999,87.8525 117.8149,89 119.2999,89 C120.7849,89 121.9999,87.8525 121.9999,86.45 L121.9999,65.7 C121.9999,64.765 121.1899,64 120.1999,64 Z"/>
    <path fill="url(#blob_cat_gratpat-b)" d="M122.2163,59 C122.4014,59.9589 122.4999,60.9641 122.4999,62 C122.4999,68.6274 118.4704,74 113.4999,74 C108.5293,74 104.4999,68.6274 104.4999,62 C104.4999,60.9641 104.5983,59.9589 104.7834,59 L122.2163,59 Z"/>
    <path fill="#000" d="M87.7079,64.9727 L70.9617,64.9727 C65.98063,63.8401 81.3922,61.2232 87.4919,61.4103 C93.5916,61.5973 90.4211,65.5058 87.7079,64.9727 Z M145.3685,70.2194 C151.0276,73.1029 161.549,77.01 161.869,76.3823 C162.189,75.7545 152.8435,69.5388 147.1845,66.6554 C145.0895,65.588 141.8774,64.9563 141.376,65.9405 C140.8745,66.9247 143.2735,69.152 145.3685,70.2194 Z M87.9224,72.5899 C88.2623,73.3188 76.872,80.0047 72.0221,82.2663 C68.98483,83.6826 67.90289,83.3164 67.42441,82.7903 C66.94593,82.2642 68.47746,80.8011 70.2894,79.5504 C75.2888,76.0997 87.5826,71.8611 87.9224,72.5899 Z M146.4745,83.3597 C150.806,88.0048 153.8263,92.2283 153.2204,92.7933 C152.6146,93.3583 148.612,90.0507 144.2804,85.4057 C139.9489,80.7607 137.4286,76.1371 138.0345,75.5722 C138.6403,75.0072 142.1429,78.7147 146.4745,83.3597 Z"/>
    <path stroke="#000" stroke-linecap="round" stroke-width="6" d="M128.4368,52.9524 C133.5624,46.4278 140.0399,49.0812 143.8631,55.6434 M87.9847,53.8037 C92.844,47.139 98.4547,46.2316 102.89,53.8548"/>
    <path fill="#FCCA1E" stroke="#000" stroke-width="3" d="M126.8062,124.512 C118.9372,127.879 101.8528,127.533 100.0974,117.793 C98.3421,108.054 126.8062,124.512 126.8062,124.512 Z M112.4999,7.00005 C119.0173,1.45219 135.4365,-3.2815 139.9999,5.50005 C144.5632,14.2816 112.4999,7.00005 112.4999,7.00005 Z"/>
    <path fill="#FCCA1E" stroke="#000" stroke-width="4" d="M237.205,99.142 L239.958,136.995 L163.403,120.436 C163.403,120.436 162.996,120.826 152.641,124.058 C142.2862,127.291 134.687,126.613 122.3027,125.944 C109.9184,125.274 107.8569,121.517 104.1191,116.512 C100.3813,111.507 101.683,109.106 101.1855,104.05 C104.405,101.185 105.5519,105.519 108.862,110.877 C112.172,116.234 122.3204,118.195 124.6784,118.562 C127.0364,118.929 131.6295,117.096 126.2623,116.785 C117.1884,116.259 110.9238,113.804 109.7373,111.945 C108.5509,110.086 105.7194,102.097 103.4049,101.737 C101.0905,101.378 99.3291,94.3529 106.2939,95.436 C113.2586,96.5192 110.3187,104.682 119.7207,106.144 C129.1228,107.606 136.5492,102.1 136.5492,102.1 C124.4542,94.8718 119.6727,86.8479 128.1116,84.7597 C128.1116,84.7597 132.5384,91.327 141.7364,91.9138 C150.9345,92.5006 167.782,103.318 167.782,103.318 L237.205,99.142 Z M14.5822,63.9534 L0.7327,28.6178 L78.756,21.7409 C78.756,21.7409 79.0293,21.2477 87.9606,15.0911 C96.8919,8.93452 104.3504,7.32905 116.3767,4.29785 C128.403,1.26664 131.4853,4.24334 136.5388,7.91581 C141.5922,11.5883 141.0604,14.2665 143.0344,18.9485 C140.8088,22.6389 138.4288,18.8396 133.6794,14.7038 C128.93,10.5679 118.6565,11.7031 116.2957,12.0518 C113.935,12.4005 110.0915,15.5121 115.3096,14.2182 C124.1316,12.0309 130.8424,12.5186 132.5266,13.9424 C134.2108,15.3662 139.283,22.1568 141.6001,21.8146 C143.9173,21.4723 147.6817,27.6592 140.7089,28.6891 C133.736,29.7191 134.1244,21.0519 124.7114,22.4423 C115.2985,23.8326 109.8379,31.2924 109.8379,31.2924 C123.5319,34.611 130.4769,40.857 123.0362,45.3527 C123.0362,45.3527 116.8617,40.3927 107.9031,42.5587 C98.9445,44.7247 79.6479,39.3875 79.6479,39.3875 L14.5822,63.9534 Z"/>
  </g>
</svg>
