<svg xmlns="http://www.w3.org/2000/svg" width="128" height="128" viewBox="0 0 128 128">
  <defs>
    <filter id="blob_cat_gratgrat-a" width="135.3%" height="220%" x="-17.6%" y="-60%" filterUnits="objectBoundingBox">
      <feGaussianBlur in="SourceGraphic" stdDeviation="5"/>
    </filter>
    <linearGradient id="blob_cat_gratgrat-b" x1="0%" x2="0%" y1="0%" y2="100%">
      <stop offset="0%" stop-color="#FFA038"/>
      <stop offset="100%" stop-color="#F17F3A"/>
    </linearGradient>
  </defs>
  <g fill="none" fill-rule="evenodd">
    <path fill="#FCCA1E" d="M34.2897,19.9756 C34.2897,19.9756 40.5486,28.7488 43.8437,29.9677 C50.6317,27.9927 57.9328,27 65.4999,27 C75.8556,27 85.533,29.759 94.007,34.441 C95.6969,34.3087 97.6283,34.032 98.4357,33.4541 C103.723,29.669 107.113,28.3829 110.093,27.252 C111.174,26.8419 112.201,26.4521 113.246,25.971 C120.736,22.5207 122.765,26.9904 121.672,34.5623 C121.326,36.9626 120.797,39.632 120.261,42.3422 C119.1,48.2042 117.901,54.257 118.426,58.1894 C123.822,67.242 126.924,77.4432 126.999,87.6242 C126.773,97.7843 98.8778,106 64.4999,106 C30.0977,106 2.18732,97.7727 2.00085,87.6026 C2.06368,74.3318 5.27394,63.2056 10.7892,54.2586 C18.3272,30.7769 19.9228,22.3364 19.9228,22.3364 C20.935,16.4953 29.2713,11.1742 34.2897,19.9756 Z"/>
    <path fill="#F17F3A" d="M32.9999,63.5 C32.9999,68.7467 28.5227,73 22.9999,73 C17.477,73 12.9999,68.7467 12.9999,63.5 C12.9999,58.2533 17.477,54 22.9999,54 C28.5227,54 32.9999,58.2533 32.9999,63.5 Z M97.9999,68 C97.9999,74.0752 93.075,79 86.9999,79 C80.9247,79 75.9999,74.0752 75.9999,68 C75.9999,61.9249 80.9247,57 86.9999,57 C93.075,57 97.9999,61.9249 97.9999,68 Z" filter="url(#blob_cat_gratgrat-a)"/>
    <path fill="#88C9F9" d="M60.1999,64 L54.7999,64 C53.8099,64 52.9999,64.765 52.9999,65.7 L52.9999,80.5 C52.9999,81.435 53.8099,82.2 54.7999,82.2 C55.7899,82.2 56.5999,81.435 56.5999,80.5 L56.5999,86.45 C56.5999,87.8525 57.8149,89 59.2999,89 C60.7849,89 61.9999,87.8525 61.9999,86.45 L61.9999,65.7 C61.9999,64.765 61.1899,64 60.1999,64 Z"/>
    <path fill="url(#blob_cat_gratgrat-b)" d="M62.2163,59 C62.4014,59.9589 62.4999,60.9641 62.4999,62 C62.4999,68.6274 58.4704,74 53.4999,74 C48.5293,74 44.4999,68.6274 44.4999,62 C44.4999,60.9641 44.5983,59.9589 44.7834,59 L62.2163,59 Z"/>
    <path fill="#000" d="M27.7079,64.9727 L10.9617,64.9727 C5.98063,63.8401 21.3922,61.2232 27.4919,61.4103 C33.5916,61.5973 30.4211,65.5058 27.7079,64.9727 Z M85.3685,70.2194 C91.0276,73.1029 101.549,77.01 101.869,76.3823 C102.189,75.7545 92.8435,69.5388 87.1845,66.6554 C85.0895,65.588 81.8774,64.9563 81.376,65.9405 C80.8745,66.9247 83.2735,69.152 85.3685,70.2194 Z M27.9224,72.5899 C28.2623,73.3188 16.872,80.0047 12.0221,82.2663 C8.98483,83.6826 7.90289,83.3164 7.42441,82.7903 C6.94593,82.2642 8.47746,80.8011 10.2894,79.5504 C15.2888,76.0997 27.5826,71.8611 27.9224,72.5899 Z M86.4745,83.3597 C90.806,88.0048 93.8263,92.2283 93.2204,92.7933 C92.6146,93.3583 88.612,90.0507 84.2804,85.4057 C79.9489,80.7607 77.4286,76.1371 78.0345,75.5722 C78.6403,75.0072 82.1429,78.7147 86.4745,83.3597 Z"/>
    <path stroke="#000" stroke-linecap="round" stroke-width="6" d="M68.4368,52.9524 C73.5624,46.4278 80.0399,49.0812 83.8631,55.6434 M27.9847,53.8037 C32.844,47.139 38.4547,46.2316 42.89,53.8548"/>
    <path fill="#FCCA1E" stroke="#000" stroke-width="3" d="M66.8062,124.512 C58.9372,127.879 41.8528,127.533 40.0974,117.793 C38.3421,108.054 66.8062,124.512 66.8062,124.512 Z"/>
    <path fill="#FCCA1E" stroke="#000" stroke-width="4" d="M177.205,99.142 L107.782,103.318 C107.782,103.318 90.9345,92.5006 81.7364,91.9138 C72.5384,91.327 68.1116,84.7597 68.1116,84.7597 C59.6727,86.8479 64.4542,94.8718 76.5492,102.1 C76.5492,102.1 69.1228,107.606 59.7207,106.144 C50.3187,104.682 53.2586,96.5192 46.2939,95.436 C39.3291,94.3529 41.0905,101.378 43.4049,101.737 C45.7194,102.097 48.5509,110.086 49.7373,111.945 C50.9238,113.804 57.1884,116.259 66.2623,116.785 C71.6295,117.096 67.0364,118.929 64.6784,118.562 C62.3204,118.195 52.172,116.234 48.862,110.877 C45.5519,105.519 44.405,101.185 41.1855,104.05 C41.683,109.106 40.3813,111.507 44.1191,116.512 C47.8569,121.517 49.9184,125.274 62.3027,125.944 C74.687,126.613 82.2862,127.291 92.641,124.058 C102.996,120.826 103.403,120.436 103.403,120.436 L179.958,136.995 L177.205,99.142 Z"/>
  </g>
</svg>
