<svg xmlns="http://www.w3.org/2000/svg" xmlns:xlink="http://www.w3.org/1999/xlink" width="64" height="60" viewBox="0 0 64 60">
  <defs>
    <polygon id="pattern-5-a" points=".946 .032 4.256 .032 4.256 10 .946 10"/>
    <polygon id="pattern-5-c" points=".399 .875 1.567 .875 1.567 1 .399 1"/>
    <polygon id="pattern-5-e" points=".985 .911 9.297 .911 9.297 7 .985 7"/>
    <polygon id="pattern-5-g" points=".958 .561 3.123 .561 3.123 1 .958 1"/>
    <polygon id="pattern-5-i" points=".521 .072 3 .072 3 4.044 .521 4.044"/>
    <polygon id="pattern-5-k" points=".213 .723 1 .723 1 4.054 .213 4.054"/>
    <polygon id="pattern-5-m" points=".311 .001 4 .001 4 3.953 .311 3.953"/>
    <polygon id="pattern-5-o" points=".84 .937 1 .937 1 1 .84 1"/>
    <polygon id="pattern-5-q" points="0 0 6.759 0 6.759 3.188 0 3.188"/>
    <polygon id="pattern-5-s" points=".001 .907 6.876 .907 6.876 3 .001 3"/>
  </defs>
  <g fill="none" fill-rule="evenodd">
    <polygon fill="#423A50" points="0 60 64 60 64 0 0 0"/>
    <path fill="#FFCE14" d="M10.9729 44.7296C11.1359 45.4256 11.7439 45.8916 12.4119 45.8916 12.5269 45.8916 12.6439 45.8776 12.7599 45.8496 13.5549 45.6546 14.0459 44.8366 13.8549 44.0226L11.6329 34.5526C11.4419 33.7396 10.6409 33.2396 9.8459 33.4326 9.0499 33.6276 8.5589 34.4466 8.7499 35.2596L10.9729 44.7296zM3.0198 12.1348L5.2418 8.7258C5.6968 8.0298 5.5128 7.0888 4.8318 6.6248 4.1468 6.1598 3.2298 6.3478 2.7768 7.0448L.5548 10.4538C.1008 11.1518.2838 12.0908.9658 12.5548 1.2188 12.7268 1.5038 12.8098 1.7858 12.8098 2.2648 12.8098 2.7348 12.5728 3.0198 12.1348M44.8762 18.21C45.1452 18.422 45.4622 18.524 45.7772 18.524 46.2212 18.524 46.6612 18.321 46.9532 17.933L50.6572 13.008C51.1552 12.345 51.0352 11.394 50.3852 10.883 49.7372 10.371 48.8082 10.495 48.3082 11.161L44.6042 16.086C44.1062 16.748 44.2262 17.7 44.8762 18.21M49.5691 8.1573L60.0341 8.6413C60.0571 8.6423 60.0781 8.6423 60.1021 8.6423 60.8891 8.6423 61.5441 8.0083 61.5801 7.1963 61.6161 6.3603 60.9841 5.6523 60.1671 5.6143L49.7021 5.1303C48.8941 5.0973 48.1941 5.7383 48.1561 6.5763 48.1201 7.4123 48.7521 8.1193 49.5691 8.1573M57.8996 37.5997L52.5896 42.5787C51.9866 43.1437 51.9466 44.1027 52.4986 44.7197 52.7916 45.0447 53.1906 45.2107 53.5906 45.2107 53.9486 45.2107 54.3076 45.0787 54.5926 44.8127L59.9016 39.8337C60.5046 39.2687 60.5456 38.3097 59.9936 37.6927 59.4406 37.0777 58.5046 37.0347 57.8996 37.5997M3.218 41.877C3.248 41.877 3.28 41.876 3.311 41.874 4.128 41.822 4.749 41.104 4.698 40.269L4.506 37.086C4.455 36.252 3.748 35.638 2.936 35.667 2.118 35.719 1.498 36.439 1.549 37.273L1.741 40.455C1.79 41.259 2.441 41.877 3.218 41.877M29.5315 19.297C29.8195 19.718 30.2795 19.944 30.7485 19.944 31.0405 19.944 31.3355 19.856 31.5945 19.672 32.2655 19.193 32.4295 18.249 31.9625 17.563L27.8825 11.578C27.4155 10.894 26.4935 10.725 25.8195 11.203 25.1485 11.683 24.9845 12.626 25.4515 13.313L29.5315 19.297zM13.4162 26.8839C13.1212 27.6639 13.4992 28.5429 14.2612 28.8459L19.2492 30.8269C19.4262 30.8969 19.6072 30.9299 19.7862 30.9299 20.3792 30.9299 20.9392 30.5629 21.1682 29.9629 21.4632 29.1839 21.0852 28.3049 20.3232 28.0009L15.3342 26.0199C14.5752 25.7199 13.7142 26.1049 13.4162 26.8839M45.3318 35.2481L40.3438 36.2961C39.5418 36.4651 39.0248 37.2661 39.1898 38.0851 39.3338 38.8011 39.9518 39.2951 40.6398 39.2951 40.7388 39.2951 40.8398 39.2851 40.9388 39.2641L45.9278 38.2171C46.7288 38.0481 47.2458 37.2471 47.0808 36.4281 46.9168 35.6091 46.1278 35.0811 45.3318 35.2481M53.0388 52.6505C53.2168 52.6505 53.3968 52.6185 53.5738 52.5485L60.0438 49.9845C60.8068 49.6805 61.1848 48.8035 60.8908 48.0235 60.5948 47.2425 59.7368 46.8545 58.9738 47.1585L52.5028 49.7225C51.7408 50.0255 51.3618 50.9035 51.6568 51.6825 51.8838 52.2835 52.4458 52.6505 53.0388 52.6505M48.7434 51.3839C48.9644 51.3839 49.1884 51.3339 49.4014 51.2259 50.1334 50.8529 50.4324 49.9429 50.0684 49.1949L46.9624 42.8049C46.5974 42.0569 45.7124 41.7479 44.9754 42.1229 44.2434 42.4959 43.9444 43.4049 44.3084 44.1549L47.4154 50.5429C47.6744 51.0759 48.1984 51.3839 48.7434 51.3839M37.6941 17.5968C37.2111 16.9198 36.2871 16.7708 35.6241 17.2668 34.9631 17.7608 34.8191 18.7068 35.3011 19.3838L39.1801 24.8158C39.4711 25.2228 39.9211 25.4368 40.3781 25.4368 40.6801 25.4368 40.9871 25.3418 41.2501 25.1458 41.9111 24.6518 42.0551 23.7038 41.5731 23.0288L37.6941 17.5968zM57.8303 28.1534C58.2733 28.1534 58.7093 27.9524 59.0023 27.5674 59.5043 26.9064 59.3873 25.9554 58.7403 25.4414L51.8983 20.0074C51.2513 19.4954 50.3213 19.6174 49.8193 20.2764 49.3173 20.9374 49.4343 21.8884 50.0813 22.4024L56.9233 27.8354C57.1933 28.0494 57.5133 28.1534 57.8303 28.1534M18.1125 39.4288C17.3025 39.5418 16.7355 40.3078 16.8475 41.1358L17.7735 47.9918C17.8755 48.7518 18.5105 49.3008 19.2395 49.3008 19.3055 49.3008 19.3755 49.2958 19.4435 49.2858 20.2535 49.1718 20.8205 48.4078 20.7075 47.5778L19.7815 40.7218C19.6705 39.8928 18.9245 39.2998 18.1125 39.4288M30.6819 50.7657C29.9399 51.1167 29.6139 52.0157 29.9569 52.7767L32.3649 58.1197C32.6149 58.6727 33.1499 58.9997 33.7109 58.9997 33.9179 58.9997 34.1299 58.9547 34.3309 58.8607 35.0729 58.5097 35.3979 57.6107 35.0559 56.8497L32.6479 51.5067C32.3049 50.7487 31.4299 50.4127 30.6819 50.7657M21.3039 40.6475C21.3339 41.4645 21.9909 42.1035 22.7829 42.1035 22.8029 42.1035 22.8229 42.1035 22.8419 42.1025 23.6589 42.0695 24.2959 41.3655 24.2639 40.5295L23.9469 32.2815C23.9169 31.4445 23.1619 30.7835 22.4089 30.8275 21.5919 30.8595 20.9549 31.5645 20.9869 32.4005L21.3039 40.6475zM3.717 50.5645C4.17 50.5645 4.617 50.3525 4.908 49.9535L8.358 45.2035C8.846 44.5315 8.71 43.5825 8.053 43.0835 7.393 42.5855 6.469 42.7245 5.98 43.3955L2.53 48.1445C2.042 48.8165 2.178 49.7665 2.835 50.2655 3.101 50.4665 3.41 50.5645 3.717 50.5645M52.3513 35.6729C52.6243 35.6729 52.9023 35.5959 53.1503 35.4339L58.0823 32.1989C58.7703 31.7479 58.9703 30.8099 58.5293 30.1059 58.0843 29.4009 57.1693 29.1939 56.4813 29.6489L51.5503 32.8829C50.8613 33.3339 50.6613 34.2719 51.1023 34.9769 51.3863 35.4279 51.8643 35.6729 52.3513 35.6729M40.3826 33.9815C40.6746 34.2985 41.0686 34.4585 41.4616 34.4585 41.8266 34.4585 42.1906 34.3225 42.4776 34.0465L47.4096 29.2965C48.0056 28.7235 48.0326 27.7645 47.4726 27.1545 46.9106 26.5445 45.9736 26.5185 45.3786 27.0895L40.4456 31.8385C39.8496 32.4135 39.8226 33.3725 40.3826 33.9815M63.0515 11.1329C62.4905 10.5239 61.5545 10.4939 60.9585 11.0699L56.0275 15.8199C55.4315 16.3919 55.4045 17.3509 55.9655 17.9599 56.2565 18.2779 56.6495 18.4369 57.0435 18.4369 57.4075 18.4369 57.7725 18.3009 58.0585 18.0239L62.9895 13.2749C63.5855 12.7009 63.6135 11.7429 63.0515 11.1329M13.6247 17.7462C13.3277 16.9652 12.4727 16.5782 11.7077 16.8802L5.7137 19.2552C4.9517 19.5572 4.5717 20.4352 4.8677 21.2162 5.0947 21.8162 5.6557 22.1832 6.2487 22.1832 6.4267 22.1832 6.6077 22.1502 6.7847 22.0812L12.7777 19.7062C13.5407 19.4042 13.9197 18.5252 13.6247 17.7462M18.7751 23.3536C19.5311 23.3536 20.1771 22.7646 20.2491 21.9806L21.1841 11.8036C21.2591 10.9706 20.6621 10.2306 19.8471 10.1526 19.0121 10.0786 18.3091 10.6876 18.2331 11.5196L17.2981 21.6966C17.2231 22.5296 17.8201 23.2696 18.6341 23.3476 18.6821 23.3526 18.7291 23.3536 18.7751 23.3536M29.7068 33.3975L30.6428 26.2515C30.7508 25.4205 30.1818 24.6585 29.3718 24.5475 28.5598 24.4415 27.8138 25.0195 27.7058 25.8485L26.7698 32.9955C26.6618 33.8255 27.2308 34.5865 28.0418 34.6985 28.1078 34.7075 28.1748 34.7105 28.2398 34.7105 28.9708 34.7105 29.6068 34.1585 29.7068 33.3975M23.8909 52.7423L27.9339 45.9803C28.3609 45.2663 28.1409 44.3333 27.4429 43.8963 26.7469 43.4603 25.8349 43.6863 25.4059 44.4003L21.3619 51.1623C20.9349 51.8753 21.1549 52.8083 21.8539 53.2453 22.0939 53.3963 22.3619 53.4673 22.6249 53.4673 23.1239 53.4673 23.6099 53.2103 23.8909 52.7423"/>
    <g transform="translate(9 50)">
      <mask id="pattern-5-b" fill="#fff">
        <use xlink:href="#pattern-5-a"/>
      </mask>
      <path fill="#FFCE14" d="M3.907,1.4835 C3.872,0.6475 3.186,-0.0065 2.365,0.0335 C1.547,0.0685 0.912,0.7745 0.947,1.6105 L1.29,10.0005 L4.256,10.0005 L3.907,1.4835 Z" mask="url(#pattern-5-b)"/>
    </g>
    <path fill="#FFCE14" d="M10.3479 1.4034C10.3809 2.2164 11.0359 2.8544 11.8269 2.8544 11.8479 2.8544 11.8689 2.8544 11.8899 2.8534 12.7069 2.8174 13.3429 2.1124 13.3079 1.2754L13.2559.0004 10.2899.0004 10.3479 1.4034zM33.3152 33.1798L34.8482 41.2558C34.9862 41.9798 35.6052 42.4828 36.3012 42.4828 36.3952 42.4828 36.4892 42.4738 36.5852 42.4538 37.3872 42.2948 37.9132 41.4998 37.7562 40.6788L36.2232 32.6028C36.0682 31.7818 35.2912 31.2438 34.4872 31.4048 33.6842 31.5648 33.1592 32.3588 33.3152 33.1798M37.5163 51.0938C38.0283 51.0938 38.5263 50.8228 38.8013 50.3358 39.2103 49.6118 38.9673 48.6848 38.2583 48.2668L32.2803 44.7368C31.5713 44.3158 30.6673 44.5648 30.2563 45.2908 29.8473 46.0158 30.0903 46.9428 30.7993 47.3608L36.7773 50.8918C37.0103 51.0288 37.2643 51.0938 37.5163 51.0938M38.3948 56.1749C38.5508 56.1749 38.7098 56.1499 38.8658 56.0969L45.0888 53.9569C45.8638 53.6899 46.2828 52.8309 46.0218 52.0379 45.7618 51.2449 44.9208 50.8209 44.1448 51.0839L37.9228 53.2229C37.1468 53.4909 36.7288 54.3489 36.9898 55.1429 37.1978 55.7759 37.7748 56.1749 38.3948 56.1749M31.8523.4073L26.6673 6.8463C26.1463 7.4933 26.2363 8.4473 26.8683 8.9783 27.1443 9.2133 27.4773 9.3253 27.8093 9.3253 28.2373 9.3253 28.6613 9.1363 28.9533 8.7733L34.1383 2.3343C34.6593 1.6873 34.5693.7323 33.9373.2013 33.8253.1063 33.6953.0553 33.5683.0003L32.3963.0003C32.1933.0933 32.0033.2203 31.8523.4073M43.6448 2.2852C43.0528 2.8632 43.0318 3.8222 43.5958 4.4282 43.8868 4.7392 44.2768 4.8962 44.6678 4.8962 45.0358 4.8962 45.4038 4.7582 45.6908 4.4772L50.2778.0002 45.9858.0002 43.6448 2.2852zM12.9665 5.3331C12.2585 5.7531 12.0175 6.6801 12.4275 7.4041 12.7025 7.8891 13.2005 8.1591 13.7115 8.1591 13.9635 8.1591 14.2185 8.0941 14.4535 7.9551L23.8515 2.3811C24.5595 1.9611 24.8005 1.0341 24.3895.3101 24.3195.1861 24.2185.0951 24.1225.0001L21.9585.0001 12.9665 5.3331zM38.675.3927C37.881.1957 37.081.7037 36.893 1.5167L34.676 11.0727C34.487 11.8867 34.979 12.7037 35.776 12.8957 35.89 12.9237 36.006 12.9367 36.119 12.9367 36.79 12.9367 37.398 12.4677 37.558 11.7707L39.775 2.2157C39.964 1.4017 39.472.5847 38.675.3927"/>
    <g transform="translate(32 59)">
      <mask id="pattern-5-d" fill="#fff">
        <use xlink:href="#pattern-5-c"/>
      </mask>
      <path fill="#FFCE14" d="M0.3992,1.0001 L1.5672,1.0001 C1.1872,0.8341 0.7702,0.8321 0.3992,1.0001" mask="url(#pattern-5-d)"/>
    </g>
    <g transform="translate(45 53)">
      <mask id="pattern-5-f" fill="#fff">
        <use xlink:href="#pattern-5-e"/>
      </mask>
      <path fill="#FFCE14" d="M8.8386,3.5225 C9.4306,2.9445 9.4516,1.9855 8.8876,1.3795 C8.3236,0.7735 7.3826,0.7525 6.7936,1.3305 L0.9846,7.0005 L5.2766,7.0005 L8.8386,3.5225 Z" mask="url(#pattern-5-f)"/>
    </g>
    <g transform="translate(21 59)">
      <mask id="pattern-5-h" fill="#fff">
        <use xlink:href="#pattern-5-g"/>
      </mask>
      <path fill="#FFCE14" d="M1.3645,0.7589 L0.9575,0.9999 L3.1225,0.9999 C2.6595,0.5419 1.9535,0.4109 1.3645,0.7589" mask="url(#pattern-5-h)"/>
    </g>
    <g transform="translate(61 17)">
      <mask id="pattern-5-j" fill="#fff">
        <use xlink:href="#pattern-5-i"/>
      </mask>
      <path fill="#FFCE14" d="M2.0041,4.044 C2.2781,4.044 2.5551,3.967 2.8041,3.803 L3.0001,3.674 L3.0001,0.072 L1.2011,1.255 C0.5141,1.706 0.3141,2.645 0.7561,3.349 C1.0391,3.798 1.5161,4.044 2.0041,4.044" mask="url(#pattern-5-j)"/>
    </g>
    <g transform="translate(63 24)">
      <mask id="pattern-5-l" fill="#fff">
        <use xlink:href="#pattern-5-k"/>
      </mask>
      <path fill="#FFCE14" d="M1.0002,4.0538 L1.0002,0.7228 C0.3022,1.1058 0.0122,1.9788 0.3612,2.7118 L1.0002,4.0538 Z" mask="url(#pattern-5-l)"/>
    </g>
    <g transform="translate(60)">
      <mask id="pattern-5-n" fill="#fff">
        <use xlink:href="#pattern-5-m"/>
      </mask>
      <path fill="#FFCE14" d="M0.4114,2.9845 C0.6384,3.5865 1.2004,3.9525 1.7934,3.9525 C1.9714,3.9525 2.1514,3.9205 2.3284,3.8505 L4.0004,3.1875 L4.0004,0.0005 L3.8424,0.0005 L1.2574,1.0245 C0.4954,1.3275 0.1164,2.2055 0.4114,2.9845" mask="url(#pattern-5-n)"/>
    </g>
    <g transform="translate(63 59)">
      <mask id="pattern-5-p" fill="#fff">
        <use xlink:href="#pattern-5-o"/>
      </mask>
      <polygon fill="#FFCE14" points="1 .937 .84 1 1 1" mask="url(#pattern-5-p)"/>
    </g>
    <path fill="#FFCE14" d="M.0002 20.6739L4.9892 17.3939C5.6762 16.9429 5.8752 16.0039 5.4332 15.2999 4.9922 14.5969 4.0772 14.3919 3.3862 14.8459L.0002 17.0709.0002 20.6739zM3.7854 34.0557C4.0024 34.0557 4.2234 34.0067 4.4314 33.9037 5.1684 33.5357 5.4734 32.6297 5.1164 31.8777L2.0264 25.3867C1.6674 24.6347.7814 24.3217.0454 24.6867.0274 24.6957.0174 24.7127.0004 24.7217L.0004 28.0547 2.4514 33.2027C2.7084 33.7427 3.2354 34.0557 3.7854 34.0557"/>
    <mask id="pattern-5-r" fill="#fff">
      <use xlink:href="#pattern-5-q"/>
    </mask>
    <path fill="#FFCE14" d="M0.0002,3.1876 L5.9322,0.8356 C6.3252,0.6796 6.6102,0.3696 6.7592,-0.0004 L0.0002,-0.0004 L0.0002,3.1876 Z" mask="url(#pattern-5-r)"/>
    <g transform="translate(0 57)">
      <mask id="pattern-5-t" fill="#fff">
        <use xlink:href="#pattern-5-s"/>
      </mask>
      <path fill="#FFCE14" d="M6.7785,1.8751 C6.4825,1.0941 5.6265,0.7061 4.8615,1.0101 L0.0005,2.9371 L0.0005,3.0001 L6.7595,3.0001 C6.9005,2.6521 6.9215,2.2531 6.7785,1.8751" mask="url(#pattern-5-t)"/>
    </g>
  </g>
</svg>
