<svg width="80" height="80" viewBox="0 0 80 80" fill="none" xmlns="http://www.w3.org/2000/svg">
<g clip-path="url(#clip0)">
<path fill-rule="evenodd" clip-rule="evenodd" d="M21.4311 12.4847C21.4311 12.4847 25.3429 17.968 27.4023 18.7298C31.6449 17.4954 36.208 16.875 40.9375 16.875C47.4098 16.875 53.4581 18.5994 58.7544 21.5256C59.8106 21.4429 61.0177 21.27 61.5224 20.9088C64.8272 18.5431 66.9456 17.7393 68.8084 17.0325C69.4839 16.7761 70.1259 16.5325 70.7786 16.2318C75.4597 14.0754 76.7284 16.869 76.0453 21.6014C75.8287 23.1016 75.4984 24.77 75.1629 26.4639C74.4374 30.1276 73.6883 33.9106 74.0163 36.3684C77.3886 42.0262 79.3275 48.402 79.3741 54.7651C79.2331 61.1152 61.7987 66.25 40.3125 66.25C18.8111 66.25 1.36712 61.1079 1.25058 54.7516C1.28985 46.4573 3.29626 39.5035 6.74327 33.9116C11.4545 19.2355 12.4518 13.9602 12.4518 13.9602C13.0844 10.3095 18.2946 6.98382 21.4311 12.4847Z" fill="#FCCA1E"/>
<g opacity="0.641974" filter="url(#filter0_f)">
<path fill-rule="evenodd" clip-rule="evenodd" d="M20.625 39.6875C20.625 42.9667 17.8268 45.625 14.375 45.625C10.9232 45.625 8.125 42.9667 8.125 39.6875C8.125 36.4083 10.9232 33.75 14.375 33.75C17.8268 33.75 20.625 36.4083 20.625 39.6875ZM61.25 42.5C61.25 46.297 58.172 49.375 54.375 49.375C50.578 49.375 47.5 46.297 47.5 42.5C47.5 38.703 50.578 35.625 54.375 35.625C58.172 35.625 61.25 38.703 61.25 42.5Z" fill="#F17F3A"/>
</g>
<path fill-rule="evenodd" clip-rule="evenodd" d="M37.625 40H34.25C33.6312 40 33.125 40.4781 33.125 41.0625V50.3125C33.125 50.8969 33.6312 51.375 34.25 51.375C34.8687 51.375 35.375 50.8969 35.375 50.3125V54.0313C35.375 54.9078 36.1344 55.625 37.0625 55.625C37.9906 55.625 38.75 54.9078 38.75 54.0313V41.0625C38.75 40.4781 38.2437 40 37.625 40Z" fill="#88C9F9"/>
<path d="M38.8853 36.875C39.001 37.4743 39.0625 38.1026 39.0625 38.75C39.0625 42.8921 36.5441 46.25 33.4375 46.25C30.3309 46.25 27.8125 42.8921 27.8125 38.75C27.8125 38.1026 27.874 37.4743 27.9897 36.875L38.8853 36.875Z" fill="url(#paint0_linear)"/>
<path fill-rule="evenodd" clip-rule="evenodd" d="M17.3175 40.6079H6.8511C3.73794 39.9 13.3702 38.2645 17.1825 38.3814C20.9948 38.4983 19.0132 40.9411 17.3175 40.6079ZM53.3554 43.8871C56.8923 45.6893 63.4683 48.1313 63.6683 47.7389C63.8682 47.3465 58.0272 43.4618 54.4904 41.6596C53.181 40.9925 51.1734 40.5977 50.86 41.2128C50.5466 41.8279 52.046 43.22 53.3554 43.8871ZM17.4516 45.3687C17.664 45.8242 10.5451 50.0029 7.51387 51.4164C5.61556 52.3016 4.93935 52.0727 4.6403 51.7439C4.34125 51.4151 5.29846 50.5006 6.43091 49.719C9.55552 47.5623 17.2392 44.9132 17.4516 45.3687ZM54.0466 52.0998C56.7538 55.003 58.6415 57.6427 58.2628 57.9958C57.8841 58.3489 55.3825 56.2817 52.6753 53.3786C49.9681 50.4754 48.3929 47.5857 48.7716 47.2326C49.1503 46.8795 51.3394 49.1967 54.0466 52.0998Z" fill="black"/>
<path d="M42.7731 33.0952C45.9765 29.0173 50.025 30.6757 52.4145 34.7771M17.4905 33.6273C20.5276 29.4618 24.0343 28.8947 26.8063 33.6592" stroke="black" stroke-width="3.75" stroke-linecap="round"/>
<path d="M32.8125 4.37499C36.8859 0.907582 47.1479 -2.05097 50 3.4375C52.8521 8.92596 32.8125 4.37499 32.8125 4.37499Z" fill="#FCCA1E" stroke="black" stroke-width="1.875"/>
<path d="M-28.3861 39.9709L12.28 24.6172C12.28 24.6172 24.3403 27.9529 29.9395 26.5991C35.5386 25.2454 39.3977 28.3454 39.3977 28.3454C44.0481 25.5356 39.7075 21.6318 31.1487 19.5577C31.1487 19.5577 34.5616 14.8954 40.4447 14.0264C46.3278 13.1574 46.0851 18.5744 50.4431 17.9307C54.8011 17.287 52.4483 13.4202 51.0001 13.6341C49.5519 13.848 46.3818 9.60384 45.3292 8.71396C44.2766 7.82408 40.0823 7.51926 34.5686 8.88638C31.3072 9.69502 33.7094 7.75029 35.1849 7.53235C36.6603 7.31442 43.0813 6.6049 46.0497 9.18982C49.0181 11.7747 50.5056 14.1493 51.8966 11.8428C50.6628 8.91651 50.9952 7.24265 47.8368 4.94735C44.6784 2.65206 42.7519 0.791621 35.2355 2.68612C27.719 4.58063 23.0575 5.58405 17.4754 9.43192C11.8934 13.2798 11.7225 13.588 11.7225 13.588L-37.042 17.8861L-28.3861 39.9709Z" fill="#FCCA1E" stroke="black" stroke-width="2.5"/>
</g>
<defs>
<filter id="filter0_f" x="3.02822" y="28.6532" width="63.3186" height="25.8186" filterUnits="userSpaceOnUse" color-interpolation-filters="sRGB">
<feFlood flood-opacity="0" result="BackgroundImageFix"/>
<feBlend mode="normal" in="SourceGraphic" in2="BackgroundImageFix" result="shape"/>
<feGaussianBlur stdDeviation="2.54839" result="effect1_foregroundBlur"/>
</filter>
<linearGradient id="paint0_linear" x1="27.8125" y1="36.875" x2="27.8125" y2="46.25" gradientUnits="userSpaceOnUse">
<stop stop-color="#FFA038"/>
<stop offset="1" stop-color="#F17F3A"/>
</linearGradient>
<clipPath id="clip0">
<rect width="80" height="80" fill="white"/>
</clipPath>
</defs>
</svg>
